<svg width="33" height="35" viewBox="0 0 33 35" fill="none" xmlns="http://www.w3.org/2000/svg">
<path d="M10.8163 0C11.2944 0 11.7529 0.189928 12.091 0.528001C12.429 0.866075 12.619 1.3246 12.619 1.80271V3.60542H19.8298V1.80271C19.8298 1.3246 20.0197 0.866075 20.3578 0.528001C20.6959 0.189928 21.1544 0 21.6325 0C22.1106 0 22.5691 0.189928 22.9072 0.528001C23.2453 0.866075 23.4352 1.3246 23.4352 1.80271V3.60542H28.8433C29.7996 3.60542 30.7166 3.98527 31.3928 4.66142C32.0689 5.33757 32.4488 6.25462 32.4488 7.21084V30.6461C32.4488 31.6023 32.0689 32.5193 31.3928 33.1955C30.7166 33.8716 29.7996 34.2515 28.8433 34.2515H3.60542C2.6492 34.2515 1.73215 33.8716 1.056 33.1955C0.379855 32.5193 0 31.6023 0 30.6461V7.21084C0 6.25462 0.379855 5.33757 1.056 4.66142C1.73215 3.98527 2.6492 3.60542 3.60542 3.60542H9.01355V1.80271C9.01355 1.3246 9.20347 0.866075 9.54155 0.528001C9.87962 0.189928 10.3381 0 10.8163 0ZM9.01355 7.21084H3.60542V12.619H28.8433V7.21084H23.4352V9.01355C23.4352 9.49165 23.2453 9.95018 22.9072 10.2883C22.5691 10.6263 22.1106 10.8163 21.6325 10.8163C21.1544 10.8163 20.6959 10.6263 20.3578 10.2883C20.0197 9.95018 19.8298 9.49165 19.8298 9.01355V7.21084H12.619V9.01355C12.619 9.49165 12.429 9.95018 12.091 10.2883C11.7529 10.6263 11.2944 10.8163 10.8163 10.8163C10.3381 10.8163 9.87962 10.6263 9.54155 10.2883C9.20347 9.95018 9.01355 9.49165 9.01355 9.01355V7.21084ZM28.8433 16.2244H3.60542V30.6461H28.8433V16.2244Z" fill="black"/>
</svg>
